# xmcd CD database file
#
# Track frame offsets:
#	187
#	11549
#	23324
#	35712
#	47299
#	56924
#	66412
#	76899
#	84799
#	94599
#	107412
#	117999
#	133212
#	142974
#	153924
#	166487
#	177849
#	190112
#	201887
#	215249
#	225474
#	237899
#	250124
#
# Disc length: 3488 seconds
#
# Revision: 4
# Processed by: cddbd v1.5.1PL2 Copyright (c) Steve Scherf et al.
# Submitted via: CDex 1.51
#
DISCID=280d9e17
DTITLE=France Gall - グレイテスト・ヒッツ
DYEAR=1900
DGENRE=
TTITLE0=夢見るシャンソン人形
TTITLE1=クリスチャンセン
TTITLE2=おしゃまな初恋
TTITLE3=アニーとボンボン
TTITLE4=娘たちにはかまわないで
TTITLE5=あなたのキャプテンに言いなさい
TTITLE6=恋のお返し
TTITLE7=アイドルばかり聞かないで
TTITLE8=はじめてのヴァカンス
TTITLE9=シャルマーニュ大王
TTITLE10=アメリカ万歳
TTITLE11=ベビー・ポップ
TTITLE12=一緒にいると
TTITLE13=ジャズ・ア・ゴー・ゴー
TTITLE14=リボンと花
TTITLE15=涙のシャンソン日記
TTITLE16=天使のためいき
TTITLE17=パンス・ア・モア
TTITLE18=ティニー・ウィニー・ボッピー
TTITLE19=ボンソワール・ジョン・ジョン
TTITLE20=ジャズる心
TTITLE21=けんかの前
TTITLE22=お友達に云わないで
EXTD=
EXTT0=
EXTT1=
EXTT2=
EXTT3=
EXTT4=
EXTT5=
EXTT6=
EXTT7=
EXTT8=
EXTT9=
EXTT10=
EXTT11=
EXTT12=
EXTT13=
EXTT14=
EXTT15=
EXTT16=
EXTT17=
EXTT18=
EXTT19=
EXTT20=
EXTT21=
EXTT22=
PLAYORDER=
